<svg version="1.1" viewBox="0 0 96 96" xmlns="http://www.w3.org/2000/svg" xmlns:xlink="http://www.w3.org/1999/xlink" id="Icons_ChessPieces" overflow="hidden"><path d=" M 42.75 69.62 C 43.9735 68.9472 44.7383 67.6662 44.75 66.27 L 44.75 65.94 C 44.7393 64.1481 43.4969 62.5992 41.75 62.2 L 41.75 58.11 C 44.3035 55.2828 44.9142 51.2007 43.3 47.75 C 42.08 44.97 36.35 41.06 34.3 39.93 C 33.3751 39.4141 32.6655 38.584 32.3 37.59 C 33.2307 38.2577 34.4031 38.4944 35.52 38.24 C 37.31 37.59 38.86 39.24 39.29 39.77 C 40.4 41 42.39 40.39 44.18 39.63 C 46.9955 38.4049 48.5258 35.3359 47.81 32.35 C 47.76 30.82 40.11 25.72 40.11 25.72 L 39.84 23.83 C 39.84 23.5 38.66 20.09 33.5 19.21 C 33.5 19.21 34.43 15.87 33.09 15.21 C 30.29 13.92 20.09 15.91 14.43 25.03 C 10.24 31.78 10.14 39.95 14.15 48.03 C 15.15 50.03 17.71 54.03 17.71 57.03 L 17.71 62.2 C 15.9631 62.5992 14.7207 64.1481 14.71 65.94 L 14.71 66.27 C 14.7217 67.6662 15.4865 68.9472 16.71 69.62 L 16.71 73.11 L 12.71 73.11 L 12.71 81.11 L 46.71 81.11 L 46.71 73.11 L 42.71 73.11 Z"/><path d=" M 80.75 73.11 L 80.75 69.62 C 81.9735 68.9472 82.7383 67.6662 82.75 66.27 L 82.75 65.94 C 82.7445 63.827 81.033 62.1155 78.92 62.11 L 77.8 62.11 L 76.69 41.11 L 58.81 41.11 L 57.7 62.11 L 56.58 62.11 C 54.467 62.1155 52.7555 63.827 52.75 65.94 L 52.75 66.27 C 52.7617 67.6662 53.5265 68.9472 54.75 69.62 L 54.75 73.11 L 50.75 73.11 L 50.75 81.11 L 84.75 81.11 L 84.75 73.11 Z"/><rect x="55.75" y="33.11" rx="3" ry="3" width="24" height="6"/><path d=" M 79.75 16.11 L 74.75 16.11 L 74.75 20.11 L 72.75 20.11 L 72.75 16.11 L 62.75 16.11 L 62.75 20.11 L 60.75 20.11 L 60.75 16.11 L 55.75 16.11 L 55.75 28.11 L 58.08 28.11 L 58.58 31.11 L 67.75 31.11 L 76.92 31.11 L 77.42 28.11 L 79.75 28.11 L 79.75 16.11 Z"/></svg>